<svg xmlns="http://www.w3.org/2000/svg" xml:space="preserve" style="enable-background:new 0 0 800 800" viewBox="0 0 800 800" fill="e44848">
    <path fill="e44848" d="M12.8 586.4h774.5c4.6 0 8.8-2.4 11.1-6.4 2.3-3.9 2.3-8.8 0-12.8L563.1 159.9c-2.3-3.9-6.5-6.4-11.1-6.4s-8.8 2.4-11.1 6.4L418.4 372.2c-3.5 6.1-1.4 13.9 4.7 17.4 6.1 3.5 13.9 1.4 17.4-4.7l27.4-47.5 32.5 24.1c4.5 3.3 10.7 3.3 15.2 0l36.4-26.9 36.4 26.9c2.3 1.7 4.9 2.5 7.6 2.5 2.7 0 5.3-.8 7.6-2.5l32.5-24.1 129 223.4H34.9l129-223.4 32.5 24.1c4.5 3.3 10.7 3.3 15.2 0l36.4-26.9 36.4 26.9c2.3 1.7 4.9 2.5 7.6 2.5s5.3-.8 7.6-2.5l32.5-24.1L442.6 529c3.5 6.1 11.3 8.2 17.4 4.7 6.1-3.5 8.2-11.3 4.7-17.4L259 159.9c-2.3-3.9-6.5-6.4-11.1-6.4s-8.8 2.4-11.1 6.4L1.7 567.3c-2.3 3.9-2.3 8.8 0 12.8 2.3 3.9 6.5 6.3 11.1 6.3zm583.2-251-36.4-26.9c-4.5-3.3-10.7-3.3-15.2 0L508 335.4l-27.3-20.2L552 191.8l71.2 123.4-27.2 20.2zM248 191.9l71.2 123.4-27.3 20.2-36.4-26.9c-4.5-3.3-10.7-3.3-15.2 0L204 335.4l-27.3-20.2L248 191.9zM736.2 715.6c7.1 0 12.8-5.7 12.8-12.8s-5.7-12.8-12.8-12.8h-110c-7.1 0-12.8 5.7-12.8 12.8s5.7 12.8 12.8 12.8h110zM51.1 702.8c0 7.1 5.7 12.8 12.8 12.8h511.2c7.1 0 12.8-5.7 12.8-12.8s-5.7-12.8-12.8-12.8H63.8c-7 0-12.7 5.8-12.7 12.8zM787.2 757.1H545.6c-7.1 0-12.8 5.7-12.8 12.8s5.7 12.8 12.8 12.8h241.6c7.1 0 12.8-5.7 12.8-12.8s-5.7-12.8-12.8-12.8zM494.5 757.1H203.3c-7.1 0-12.8 5.7-12.8 12.8s5.7 12.8 12.8 12.8h291.2c7.1 0 12.8-5.7 12.8-12.8s-5.7-12.8-12.8-12.8zM152.3 757.1H12.8c-7.1 0-12.8 5.7-12.8 12.8s5.7 12.8 12.8 12.8h139.5c7.1 0 12.8-5.7 12.8-12.8s-5.8-12.8-12.8-12.8zM787.2 625H144.4c-7.1 0-12.8 5.7-12.8 12.8 0 7.1 5.7 12.8 12.8 12.8h642.9c7.1 0 12.8-5.7 12.8-12.8-.1-7.1-5.8-12.8-12.9-12.8zM12.8 650.5h80.5c7.1 0 12.8-5.7 12.8-12.8 0-7.1-5.7-12.8-12.8-12.8H12.8C5.7 625 0 630.7 0 637.7c0 7.1 5.7 12.8 12.8 12.8z"/><path d="M400 160.3c39.4 0 71.5-32.1 71.5-71.5S439.4 17.4 400 17.4s-71.5 32.1-71.5 71.5 32.1 71.4 71.5 71.4zm0-126c30.1 0 54.5 24.5 54.5 54.5S430 143.3 400 143.3s-54.5-24.5-54.5-54.5 24.4-54.5 54.5-54.5z"/>
</svg>