<svg aria-hidden="true" style="position: absolute; width: 0; height: 0; overflow: hidden;" version="1.1" xmlns="http://www.w3.org/2000/svg" xmlns:xlink="http://www.w3.org/1999/xlink">
<defs>
<symbol id="ac" viewBox="0 0 32 32">
<path d="M15.52 3.2c-1.44 0-3.040 0.48-4.16 1.44s-1.92 2.24-2.24 3.68l-0.16 0.64c-0.16 0.32 0 0.8 0.48 1.12 0.48 0.16 1.12 0 1.44-0.48 0-0.16 0.16-0.32 0.16-0.32l0.16-0.64c0.16-0.96 0.8-1.92 1.6-2.56 1.92-1.28 4.48-1.12 5.92 0.64 0.8 0.8 1.12 1.92 1.12 3.040s-0.48 2.24-1.28 3.2c-0.8 0.8-1.92 1.28-3.2 1.28h-14.4c-0.32 0-0.48 0.16-0.64 0.32-0.32 0.32-0.32 0.96 0 1.44 0 0 0 0 0 0 0.16-0.16 0.48 0 0.64 0h14.56c1.76 0 3.36-0.8 4.48-1.92s1.92-2.88 1.92-4.48c0-1.6-0.64-3.36-1.92-4.48-1.12-1.12-2.88-1.92-4.48-1.92zM27.040 12c-1.28 0-2.56 0.48-3.52 1.44s-1.44 2.24-1.44 3.52c0 0.32 0.16 0.48 0.32 0.64 0.32 0.32 0.96 0.32 1.44 0 0.16-0.16 0.32-0.48 0.32-0.64 0-0.64 0.16-1.12 0.48-1.6s0.8-0.8 1.28-1.12c1.12-0.48 2.4-0.16 3.2 0.64s1.12 2.080 0.64 3.2c-0.16 0.48-0.64 0.96-1.12 1.28s-1.12 0.48-1.6 0.48h-26.080c-0.32 0-0.48 0.16-0.64 0.32-0.32 0.32-0.32 0.96 0 1.44 0 0 0 0 0 0 0.16 0.16 0.48 0.32 0.64 0.32h19.52c0.64 0 1.28 0.32 1.76 0.8s0.8 1.12 0.8 1.76c0 0.64-0.32 1.28-0.8 1.76-0.96 0.96-2.4 0.96-3.36 0.16-0.48-0.32-0.8-0.96-0.8-1.44v0c0-0.32-0.16-0.48-0.32-0.64-0.48-0.32-1.12-0.16-1.44 0.16 0 0.16-0.16 0.16-0.16 0.32s0 0.32 0 0.32v0c0.16 0.96 0.8 1.92 1.6 2.72 1.76 1.44 4.48 1.44 6.080-0.32 0.8-0.8 1.28-1.92 1.28-3.2 0-0.96-0.32-1.76-0.8-2.4h2.72c1.28 0 2.56-0.48 3.52-1.44s1.44-2.24 1.44-3.52c0-1.28-0.48-2.56-1.44-3.52-0.96-0.8-2.24-1.44-3.52-1.44z"></path>
</symbol>
<symbol id="air-conditioner" viewBox="0 0 32 32">
<path d="M28.64 18.4c0 0 0 0 0 0h-25.28c-1.92 0-3.52-1.6-3.52-3.52v-11.52c0.16-1.92 1.6-3.36 3.52-3.36h25.12c1.92 0 3.52 1.6 3.52 3.52v11.36c0 1.92-1.44 3.52-3.36 3.52zM3.36 2.4c-0.64 0-1.12 0.48-1.12 1.12v11.36c0 0.64 0.48 1.12 1.12 1.12h25.12c0.64 0 1.12-0.48 1.12-1.12v-11.52c0-0.64-0.48-1.12-1.12-1.12v-1.12 1.28h-25.12z"></path>
<path d="M16 32c-0.64 0-1.28-0.48-1.28-1.28v-8c0-0.64 0.48-1.28 1.28-1.28s1.28 0.48 1.28 1.28v8c0 0.8-0.64 1.28-1.28 1.28zM26.24 29.76h-0.16c-2.4 0-4.48-1.92-4.48-4.48v-2.56c0-0.64 0.48-1.28 1.28-1.28s1.28 0.48 1.28 1.28v2.56c0 1.12 0.96 1.92 1.92 1.92h0.16c0.64 0 1.28 0.48 1.28 1.28s-0.64 1.28-1.28 1.28zM5.92 29.76h-0.16c-0.64 0-1.28-0.48-1.28-1.28s0.48-1.28 1.28-1.28h0.16c1.12 0 1.92-0.96 1.92-1.92v-2.56c0-0.64 0.48-1.28 1.28-1.28s1.28 0.48 1.28 1.28v2.56c0 2.56-2.080 4.48-4.48 4.48zM25.12 18.4c-0.64 0-1.28-0.48-1.28-1.28v-4.48c0-0.64-0.48-1.12-1.12-1.12h-13.6c-0.64 0-1.12 0.48-1.12 1.12v4.64c0 0.64-0.48 1.28-1.28 1.28s-1.28-0.48-1.28-1.28v-4.64c0-1.92 1.6-3.52 3.52-3.52h13.76c1.92 0 3.52 1.6 3.52 3.52v4.64c0.16 0.48-0.48 1.12-1.12 1.12z"></path>
</symbol>
<symbol id="alcove" viewBox="0 0 44 32">
<path d="M2.518 2.29h11.981c0 0 0.001 0 0.001 0 0.104 0 0.199-0.042 0.267-0.109l-0 0 1.151-1.121c0.321-0.314 0.761-0.508 1.246-0.508 0.002 0 0.005 0 0.007 0h18.168c0.004-0 0.008-0 0.012-0 0.863 0 1.625 0.431 2.084 1.089l0.005 0.008 2.177 3.187c0.309 0.452 0.338 1.031 0.075 1.51-0.263 0.467-0.756 0.777-1.321 0.777-0.003 0-0.006 0-0.009-0h-9.363v0.924h4.796c0.006-0 0.013-0 0.020-0 1.282 0 2.387 0.762 2.885 1.858l0.008 0.020 2.808 6.42 2.461 0.96c1.313 0.513 2.162 1.736 2.162 3.116v5.945c0 0.887-0.739 1.609-1.649 1.609h-2.862c-0.332 1.967-2.089 3.475-4.2 3.475s-3.869-1.507-4.2-3.476h-15.645c-0.333 1.969-2.090 3.476-4.201 3.476-2.11 0-3.866-1.507-4.2-3.476h-5.716c-0.81 0-1.466-0.64-1.466-1.428v-21.8c0-1.355 1.129-2.456 2.518-2.456zM35.427 30.091c1.58 0 2.867-1.255 2.867-2.797 0-1.542-1.287-2.796-2.867-2.796-1.581 0-2.867 1.255-2.867 2.796 0 1.543 1.286 2.797 2.867 2.797zM28.999 26.615h2.228l0.019-0.1 0.013-0.068c0.011-0.053 0.024-0.106 0.038-0.159l0.009-0.033c0.017-0.063 0.034-0.125 0.055-0.188 0.004-0.018 0.011-0.035 0.018-0.054 0.033-0.099 0.057-0.165 0.083-0.23l-0.011 0.031 0.045-0.11 0.033-0.073 0.047-0.105 0.036-0.073 0.053-0.099 0.039-0.072 0.057-0.097 0.042-0.068 0.064-0.097 0.043-0.063c0.024-0.034 0.049-0.068 0.075-0.102l0.039-0.053c0.086-0.109 0.167-0.205 0.252-0.297l-0.003 0.004 0.041-0.042 0.093-0.096 0.055-0.051c0.072-0.070 0.148-0.137 0.226-0.202l0.007-0.005 0.064-0.050c0.041-0.033 0.091-0.071 0.143-0.109l0.013-0.009 0.094-0.065 0.066-0.044c0.033-0.022 0.066-0.042 0.1-0.063l0.066-0.040c0.036-0.022 0.074-0.042 0.111-0.063l0.057-0.033c0.024-0.014 0.078-0.041 0.132-0.067l0.031-0.014 0.012-0.006c0.060-0.029 0.119-0.055 0.18-0.079 0.019-0.009 0.040-0.015 0.058-0.023l0.126-0.049 0.072-0.025c0.134-0.048 0.303-0.096 0.476-0.134l0.029-0.005 0.084-0.018c0.084-0.017 0.194-0.034 0.306-0.047l0.018-0.002 0.079-0.009 0.138-0.011c0.022 0 0.045-0.003 0.068-0.003 0.062-0.004 0.135-0.006 0.209-0.006s0.146 0.002 0.219 0.006l-0.010-0c0.022 0 0.044 0.002 0.068 0.004 0.045 0.002 0.092 0.006 0.138 0.011 0.026 0.001 0.053 0.006 0.079 0.008 0.158 0.017 0.297 0.040 0.434 0.071l-0.025-0.005c0.201 0.042 0.37 0.090 0.535 0.148l-0.029-0.009 0.072 0.025 0.126 0.049 0.058 0.022c0.061 0.025 0.121 0.052 0.18 0.081l0.012 0.006c0.055 0.026 0.109 0.053 0.162 0.082l0.057 0.032c0.039 0.020 0.076 0.041 0.113 0.063l0.066 0.040 0.099 0.063 0.067 0.044 0.094 0.066c0.062 0.043 0.112 0.082 0.162 0.122l-0.006-0.005 0.064 0.050c0.086 0.073 0.162 0.14 0.236 0.21l-0.003-0.003 0.055 0.051 0.093 0.096 0.041 0.042c0.044 0.046 0.086 0.095 0.127 0.143l0.017 0.020c0.035 0.043 0.071 0.085 0.105 0.13l0.039 0.053 0.075 0.102 0.043 0.063 0.064 0.097 0.042 0.068 0.056 0.097 0.040 0.072 0.053 0.099 0.036 0.073c0.017 0.035 0.033 0.070 0.047 0.105l0.033 0.072c0.019 0.041 0.044 0.101 0.066 0.162l0.006 0.019 0.045 0.129 0.019 0.055c0.019 0.062 0.038 0.124 0.055 0.188l0.008 0.033c0.013 0.052 0.025 0.105 0.036 0.158l0.014 0.068 0.019 0.1h2.861c0.001 0 0.002 0 0.003 0 0.139 0 0.252-0.112 0.254-0.25v-2.845h-1.086v-1.357h1.086v-1.743c0-0.822-0.505-1.55-1.288-1.856l-2.604-1.015h-9.856v9.067zM28.999 16.19h8.938l-2.508-5.735c-0.284-0.626-0.903-1.053-1.622-1.053-0.004 0-0.008 0-0.012 0h-4.795v6.787zM11.382 30.091c1.581 0 2.867-1.255 2.867-2.797 0-1.542-1.286-2.796-2.867-2.796-0.050 0-0.098 0.001-0.147 0.004-1.318 0.065-2.402 1.002-2.662 2.229-0.026 0.121-0.045 0.265-0.054 0.412l-0 0.008c-0.002 0.038-0.003 0.083-0.003 0.129 0 0.005 0 0.010 0 0.016v-0.001c0 1.543 1.286 2.797 2.866 2.797zM1.391 22.163h1.086v1.357h-1.087v3.023c0 0.040 0.033 0.072 0.074 0.072h5.716l0.020-0.099c0.004-0.023 0.008-0.047 0.013-0.071 0.011-0.052 0.022-0.104 0.036-0.154l0.009-0.036c0.017-0.063 0.035-0.125 0.055-0.188l0.019-0.055 0.044-0.128 0.028-0.070c0.040-0.102 0.066-0.163 0.093-0.223l-0.016 0.039 0.047-0.103c0.011-0.025 0.024-0.050 0.038-0.074l0.051-0.099 0.041-0.072c0.078-0.134 0.146-0.24 0.217-0.344l-0.012 0.019 0.074-0.1 0.041-0.055c0.033-0.043 0.066-0.085 0.103-0.127l0.018-0.022c0.042-0.049 0.084-0.097 0.127-0.143l0.042-0.044 0.093-0.094 0.055-0.052 0.085-0.081 0.061-0.052 0.087-0.073 0.064-0.052c0.038-0.030 0.088-0.069 0.139-0.106l0.015-0.011c0.031-0.022 0.062-0.044 0.094-0.064l0.066-0.045 0.099-0.063 0.066-0.040 0.113-0.063 0.058-0.033c0.053-0.028 0.107-0.054 0.161-0.079 0.004-0.002 0.009-0.006 0.014-0.007 0.058-0.029 0.119-0.055 0.179-0.079l0.184-0.072 0.073-0.025c0.012-0.005 0.050-0.018 0.089-0.030l0.027-0.007c0.097-0.032 0.228-0.067 0.361-0.095l0.029-0.005 0.083-0.019c0.084-0.017 0.194-0.034 0.306-0.047l0.018-0.002 0.079-0.009 0.139-0.011c0.022 0 0.044-0.003 0.067-0.003 0.062-0.004 0.135-0.006 0.209-0.006s0.146 0.002 0.219 0.006l-0.010-0c0.023 0 0.045 0.002 0.068 0.004 0.046 0.002 0.093 0.006 0.138 0.011 0.026 0.001 0.053 0.006 0.079 0.008 0.089 0.010 0.16 0.020 0.23 0.032l-0.023-0.003 0.117 0.020 0.084 0.018c0.133 0.028 0.237 0.054 0.34 0.085l-0.030-0.008 0.079 0.024c0.039 0.011 0.077 0.024 0.115 0.038l0.073 0.025 0.126 0.049 0.058 0.022c0.148 0.062 0.264 0.118 0.377 0.179l-0.023-0.011 0.058 0.032 0.113 0.063 0.066 0.040 0.099 0.063 0.067 0.044 0.093 0.066c0.060 0.042 0.111 0.080 0.159 0.12l-0.005-0.004 0.065 0.052c0.030 0.023 0.058 0.049 0.087 0.073l0.060 0.052 0.141 0.132 0.093 0.095 0.041 0.044c0.082 0.089 0.164 0.184 0.241 0.283l0.007 0.010 0.040 0.053c0.025 0.033 0.051 0.067 0.074 0.102l0.043 0.064c0.049 0.070 0.103 0.156 0.153 0.243l0.010 0.018 0.040 0.072 0.052 0.099 0.036 0.073 0.049 0.105 0.032 0.072c0.017 0.038 0.031 0.075 0.045 0.113l0.026 0.068c0.017 0.043 0.031 0.086 0.045 0.13l0.019 0.053c0.020 0.062 0.038 0.126 0.055 0.188l0.007 0.031c0.014 0.053 0.026 0.107 0.039 0.161l0.012 0.066 0.021 0.103h12.023v-20.171c0-0.375 0.311-0.68 0.695-0.68h10.060c0.017 0 0.070 0 0.103-0.061 0.009-0.015 0.015-0.034 0.015-0.053 0-0.024-0.008-0.046-0.022-0.063l0 0-2.176-3.186c-0.208-0.3-0.551-0.493-0.939-0.493-0.002 0-0.003 0-0.005 0h-18.168c-0 0-0 0-0.001 0-0.104 0-0.199 0.042-0.267 0.109l0-0-1.151 1.122c-0.321 0.313-0.76 0.506-1.244 0.506-0.003 0-0.006 0-0.008-0h-11.98c-0.004-0-0.008-0-0.012-0-0.61 0-1.106 0.49-1.114 1.098v17.418z"></path>
<path d="M19.422 7.501h4.402c0.888 0 1.612 0.706 1.612 1.574v14.527c0 0.375-0.311 0.679-0.695 0.679h-6.234c-0.002 0-0.005 0-0.008 0-0.377 0-0.682-0.303-0.687-0.678v-14.527c0-0.868 0.722-1.574 1.611-1.574zM19.201 22.922h4.843v-7.981h-4.844v7.981zM19.201 13.583h4.843v-4.51c-0.001-0.12-0.099-0.216-0.218-0.216-0.001 0-0.002 0-0.002 0h-4.403c-0.121 0-0.221 0.097-0.221 0.216v4.508h0.001zM5.345 7.501h8.51c0.984 0 1.784 0.781 1.784 1.74v3.959c0 0.96-0.801 1.74-1.784 1.74h-8.511c-0.983 0-1.783-0.78-1.783-1.74v-3.959c0-0.96 0.8-1.74 1.784-1.74zM4.952 13.201c0 0.21 0.177 0.383 0.393 0.383h8.51c0.001 0 0.003 0 0.004 0 0.213 0 0.385-0.171 0.388-0.383v-3.959c0-0.211-0.177-0.383-0.393-0.383h-8.511c-0.001 0-0.002 0-0.003 0-0.213 0-0.385 0.171-0.388 0.383v3.959z"></path>
</symbol>
<symbol id="auto" viewBox="0 0 32 32">
<path d="M24 29.28h-1.28c-0.64 0-1.28-0.48-1.28-1.28v-5.28c0-0.64 0.48-1.28 1.28-1.28h1.28c2.080 0 3.84 1.76 3.84 3.84 0 2.24-1.76 4-3.84 4zM23.84 26.88v0c0.96 0 1.6-0.64 1.6-1.44s-0.64-1.44-1.44-1.44h-0.16v2.88zM22.72 18.56c-0.64 0-1.28-0.48-1.28-1.28v-6.56c0-0.64 0.48-1.28 1.28-1.28h1.92c1.76 0 3.2 1.44 3.2 3.2s-1.44 3.2-3.2 3.2h-0.8v1.44c0 0.64-0.48 1.28-1.12 1.28zM23.84 13.44h0.8c0.48 0 0.8-0.32 0.8-0.8s-0.32-0.8-0.8-0.8h-0.8v1.6zM6.72 10.56c-0.16 0-0.16 0 0 0-2.24 0-4-1.76-3.84-4 0 0 0 0 0 0 0-2.080 1.76-3.68 3.84-3.84 2.080 0 3.84 1.6 4 3.84 0 0 0 0.16 0 0.16 0 1.12-0.48 2.080-1.28 2.72-0.8 0.8-1.76 1.12-2.72 1.12zM5.12 6.72c0 0.32 0.16 0.8 0.48 1.12 0.32 0.16 0.64 0.32 0.96 0.32 0.8 0 1.44-0.64 1.44-1.44 0-0.48-0.16-0.8-0.48-1.12-0.16-0.16-0.48-0.32-0.96-0.32-0.64 0-1.28 0.64-1.44 1.44v0z"></path>
<path d="M17.28 26.56h-4c-1.44 0-2.56-1.12-2.56-2.56v-8.16h-2.72c-0.64 0-1.28-0.32-1.76-0.8s-0.8-0.96-0.8-1.76v-4c0-0.64 0.48-1.28 1.28-1.28s1.28 0.48 1.28 1.28v4c0 0 0 0.16 0.16 0.16h9.28c0.64 0 1.28 0.48 1.28 1.28s-0.48 1.28-1.28 1.28h-4.32v8c0 0 0 0.16 0.16 0.16h4c0.64 0 1.28 0.48 1.28 1.28s-0.64 1.12-1.28 1.12z"></path>
</symbol>
<symbol id="bed" viewBox="0 0 32 32">
<path d="M28.96 27.2c-0.64 0-1.12-0.48-1.12-1.12v-7.040c0-1.6-1.28-2.88-2.88-2.88h-17.92c-1.6 0-2.88 1.28-2.88 2.88v7.040c0 0.64-0.48 1.12-1.12 1.12s-1.12-0.48-1.12-1.12v-7.040c0-2.080 1.12-3.84 2.88-4.64v-5.92c0-1.92 1.6-3.68 3.68-3.68h15.040c1.92 0 3.68 1.6 3.68 3.68v5.92c1.76 0.8 3.040 2.56 3.040 4.64v7.040c-0.16 0.48-0.64 1.12-1.28 1.12zM7.2 13.92h17.76v-5.44c0-0.8-0.64-1.44-1.44-1.44h-15.040c-0.8 0-1.44 0.64-1.44 1.44v5.44z"></path>
<path d="M28.96 27.2c-0.64 0-1.12-0.48-1.12-1.12v-0.48c0-0.16-0.16-0.32-0.32-0.32h-23.040c-0.16 0-0.32 0.16-0.32 0.32v0.48c0 0.64-0.48 1.12-1.12 1.12s-1.12-0.48-1.12-1.12v-0.48c0-1.44 1.12-2.56 2.56-2.56h23.040c1.44 0 2.56 1.12 2.56 2.56v0.48c0 0.48-0.48 1.12-1.12 1.12zM24.96 16.16c-0.64 0-1.12-0.48-1.12-1.12v-0.96c0-0.48-0.32-0.8-0.96-0.8h-4.96c-0.48 0-0.8 0.32-0.8 0.96 0 0 0 0 0 0v0.96c0 0.64-0.48 1.12-1.12 1.12s-1.12-0.64-1.12-1.28v-0.96c0-0.48-0.32-0.96-0.96-0.96h-4.96c-0.48 0-0.8 0.32-0.8 0.96v0.96c0 0.64-0.48 1.12-1.12 1.12s-1.12-0.48-1.12-1.12v-0.96c0-1.76 1.44-3.040 3.040-3.2h4.96c0.8 0 1.6 0.32 2.080 0.8 0.48-0.48 1.28-0.8 1.92-0.8h4.96c1.76 0 3.040 1.44 3.2 3.040v0.96c0 0.8-0.48 1.28-1.12 1.28z"></path>
</symbol>
<symbol id="cd" viewBox="0 0 32 32">
<path d="M16 29.28c-7.2 0-13.12-5.92-13.12-13.12s5.92-13.28 13.12-13.28 13.12 5.92 13.12 13.12-5.92 13.28-13.12 13.28zM16 5.28c-5.92 0-10.88 4.8-10.88 10.88 0 5.92 4.8 10.88 10.88 10.88 5.92 0 10.88-4.8 10.88-10.88s-4.96-10.88-10.88-10.88z"></path>
<path d="M8.64 17.28c-0.64 0-1.28-0.48-1.28-1.28 0-4.64 3.84-8.48 8.48-8.48 0.64 0 1.28 0.48 1.28 1.28s-0.48 1.12-1.12 1.12c-3.36 0-6.080 2.72-6.080 6.080 0 0.64-0.64 1.28-1.28 1.28z"></path>
<path d="M16 20.48c-2.56 0-4.48-2.080-4.48-4.48 0-2.56 2.080-4.48 4.48-4.48 2.56 0 4.48 2.080 4.48 4.48 0 2.56-1.92 4.48-4.48 4.48zM16 13.92c-1.12 0-2.080 0.96-2.080 2.080s0.96 2.080 2.080 2.080 2.080-0.96 2.080-2.080-0.96-2.080-2.080-2.080z"></path>
</symbol>
<symbol id="close-btn" viewBox="0 0 32 32">
<path d="M24 25.5c-0.4 0-0.8-0.1-1.1-0.4l-6.9-7-6.9 6.9c-0.6 0.6-1.5 0.6-2.1 0s-0.6-1.5 0-2.1l6.9-6.9-7-6.9c-0.6-0.6-0.6-1.5 0-2.1s1.5-0.6 2.1 0l6.9 6.9 6.9-6.9c0.6-0.6 1.5-0.6 2.1 0s0.6 1.5 0 2.1l-6.8 6.9 6.9 6.9c0.6 0.6 0.6 1.5 0 2.1-0.2 0.4-0.6 0.5-1 0.5z"></path>
</symbol>
<symbol id="freezer" viewBox="0 0 32 32">
<path d="M23.36 28.48h-14.72c-1.6 0-3.040-1.44-3.040-3.040v-20.48c0-1.6 1.44-3.040 3.040-3.040h14.72c1.6 0 3.040 1.44 3.040 3.040v20.32c0 1.76-1.28 3.2-3.040 3.2zM8.64 4c-0.64 0-0.96 0.48-0.96 0.96v20.32c0 0.48 0.48 0.96 0.96 0.96h14.72c0.48 0 0.96-0.48 0.96-0.96v-20.32c0-0.48-0.48-0.96-0.96-0.96h-14.72z"></path>
<path d="M22.72 30.080h-1.6c-0.48 0-0.96-0.16-1.44-0.64-0.32-0.32-0.64-0.8-0.64-1.44v-0.64c0-0.64 0.48-1.12 1.12-1.12s1.12 0.48 1.12 1.12v0.64h1.44v-0.64c0-0.64 0.48-1.12 1.12-1.12s1.12 0.48 1.12 1.12v0.64c-0.32 1.12-1.28 2.080-2.24 2.080zM11.040 30.080h-1.6c-1.12 0-1.92-0.96-1.92-1.92v-0.64c0-0.64 0.48-1.12 0.96-1.12s0.96 0.48 0.96 1.12v0.64h1.44v-0.64c0-0.64 0.48-1.12 0.96-1.12s0.96 0.48 0.96 1.12v0.64c0.16 0.96-0.8 1.92-1.76 1.92zM10.24 20.48c-0.64 0-0.96-0.48-0.96-1.12v-4c0-0.48 0.48-0.96 0.96-0.96s0.96 0.48 0.96 0.96v4c0.16 0.64-0.32 1.12-0.96 1.12zM25.44 14.24h-18.88c-0.64 0-0.96-0.48-0.96-0.96s0.48-0.96 0.96-0.96h18.72c0.64 0 1.12 0.48 1.12 0.96s-0.48 0.96-0.96 0.96zM10.24 11.68c-0.48 0-0.96-0.48-0.96-1.12v-4c0-0.64 0.48-0.96 0.96-0.96s0.96 0.48 0.96 0.96v4c0.16 0.64-0.32 1.12-0.96 1.12z"></path>
</symbol>
<symbol id="fully_integrated" viewBox="0 0 44 32">
<path d="M2.518 2.29h11.981c0 0 0.001 0 0.001 0 0.104 0 0.199-0.042 0.267-0.109l-0 0 1.151-1.121c0.321-0.314 0.761-0.508 1.246-0.508 0.002 0 0.005 0 0.007 0h18.168c0.004-0 0.008-0 0.012-0 0.863 0 1.625 0.431 2.084 1.089l0.005 0.008 2.177 3.187c0.309 0.452 0.338 1.031 0.075 1.51-0.263 0.467-0.756 0.777-1.321 0.777-0.003 0-0.006 0-0.009-0h-9.363v0.924h4.796c0.006-0 0.013-0 0.020-0 1.282 0 2.387 0.762 2.885 1.858l0.008 0.020 2.808 6.42 2.461 0.96c1.313 0.513 2.162 1.736 2.162 3.116v5.945c0 0.887-0.739 1.609-1.649 1.609h-2.862c-0.332 1.967-2.089 3.475-4.2 3.475s-3.869-1.507-4.2-3.476h-15.645c-0.333 1.969-2.090 3.476-4.201 3.476-2.11 0-3.866-1.507-4.2-3.476h-5.716c-0.81 0-1.466-0.64-1.466-1.428v-21.8c0-1.355 1.129-2.456 2.518-2.456zM35.427 30.091c1.58 0 2.867-1.255 2.867-2.797 0-1.542-1.287-2.796-2.867-2.796-1.581 0-2.867 1.255-2.867 2.796 0 1.543 1.286 2.797 2.867 2.797zM28.999 26.615h2.228l0.019-0.1 0.013-0.068c0.011-0.053 0.024-0.106 0.038-0.159l0.009-0.033c0.017-0.063 0.034-0.125 0.055-0.188 0.004-0.018 0.011-0.035 0.018-0.054 0.033-0.099 0.057-0.165 0.083-0.23l-0.011 0.031 0.045-0.11 0.033-0.073 0.047-0.105 0.036-0.073 0.053-0.099 0.039-0.072 0.057-0.097 0.042-0.068 0.064-0.097 0.043-0.063c0.024-0.034 0.049-0.068 0.075-0.102l0.039-0.053c0.086-0.109 0.167-0.205 0.252-0.297l-0.003 0.004 0.041-0.042 0.093-0.096 0.055-0.051c0.072-0.070 0.148-0.137 0.226-0.202l0.007-0.005 0.064-0.050c0.041-0.033 0.091-0.071 0.143-0.109l0.013-0.009 0.094-0.065 0.066-0.044c0.033-0.022 0.066-0.042 0.1-0.063l0.066-0.040c0.036-0.022 0.074-0.042 0.111-0.063l0.057-0.033c0.024-0.014 0.078-0.041 0.132-0.067l0.031-0.014 0.012-0.006c0.060-0.029 0.119-0.055 0.18-0.079 0.019-0.009 0.040-0.015 0.058-0.023l0.126-0.049 0.072-0.025c0.134-0.048 0.303-0.096 0.476-0.134l0.029-0.005 0.084-0.018c0.084-0.017 0.194-0.034 0.306-0.047l0.018-0.002 0.079-0.009 0.138-0.011c0.022 0 0.045-0.003 0.068-0.003 0.062-0.004 0.135-0.006 0.209-0.006s0.146 0.002 0.219 0.006l-0.010-0c0.022 0 0.044 0.002 0.068 0.004 0.045 0.002 0.092 0.006 0.138 0.011 0.026 0.001 0.053 0.006 0.079 0.008 0.158 0.017 0.297 0.040 0.434 0.071l-0.025-0.005c0.201 0.042 0.37 0.090 0.535 0.148l-0.029-0.009 0.072 0.025 0.126 0.049 0.058 0.022c0.061 0.025 0.121 0.052 0.18 0.081l0.012 0.006c0.055 0.026 0.109 0.053 0.162 0.082l0.057 0.032c0.039 0.020 0.076 0.041 0.113 0.063l0.066 0.040 0.099 0.063 0.067 0.044 0.094 0.066c0.062 0.043 0.112 0.082 0.162 0.122l-0.006-0.005 0.064 0.050c0.086 0.073 0.162 0.14 0.236 0.21l-0.003-0.003 0.055 0.051 0.093 0.096 0.041 0.042c0.044 0.046 0.086 0.095 0.127 0.143l0.017 0.020c0.035 0.043 0.071 0.085 0.105 0.13l0.039 0.053 0.075 0.102 0.043 0.063 0.064 0.097 0.042 0.068 0.056 0.097 0.040 0.072 0.053 0.099 0.036 0.073c0.017 0.035 0.033 0.070 0.047 0.105l0.033 0.072c0.019 0.041 0.044 0.101 0.066 0.162l0.006 0.019 0.045 0.129 0.019 0.055c0.019 0.062 0.038 0.124 0.055 0.188l0.008 0.033c0.013 0.052 0.025 0.105 0.036 0.158l0.014 0.068 0.019 0.1h2.861c0.001 0 0.002 0 0.003 0 0.139 0 0.252-0.112 0.254-0.25v-2.845h-1.086v-1.357h1.086v-1.743c0-0.822-0.505-1.55-1.288-1.856l-2.604-1.015h-9.856v9.067zM28.999 16.19h8.938l-2.508-5.735c-0.284-0.626-0.903-1.053-1.622-1.053-0.004 0-0.008 0-0.012 0h-4.795v6.787zM11.382 30.091c1.581 0 2.867-1.255 2.867-2.797 0-1.542-1.286-2.796-2.867-2.796-0.050 0-0.098 0.001-0.147 0.004-1.318 0.065-2.402 1.002-2.662 2.229-0.026 0.121-0.045 0.265-0.054 0.412l-0 0.008c-0.002 0.038-0.003 0.083-0.003 0.129 0 0.005 0 0.010 0 0.016v-0.001c0 1.543 1.286 2.797 2.866 2.797zM1.391 22.163h1.086v1.357h-1.087v3.023c0 0.040 0.033 0.072 0.074 0.072h5.716l0.020-0.099c0.004-0.023 0.008-0.047 0.013-0.071 0.011-0.052 0.022-0.104 0.036-0.154l0.009-0.036c0.017-0.063 0.035-0.125 0.055-0.188l0.019-0.055 0.044-0.128 0.028-0.070c0.040-0.102 0.066-0.163 0.093-0.223l-0.016 0.039 0.047-0.103c0.011-0.025 0.024-0.050 0.038-0.074l0.051-0.099 0.041-0.072c0.078-0.134 0.146-0.24 0.217-0.344l-0.012 0.019 0.074-0.1 0.041-0.055c0.033-0.043 0.066-0.085 0.103-0.127l0.018-0.022c0.042-0.049 0.084-0.097 0.127-0.143l0.042-0.044 0.093-0.094 0.055-0.052 0.085-0.081 0.061-0.052 0.087-0.073 0.064-0.052c0.038-0.030 0.088-0.069 0.139-0.106l0.015-0.011c0.031-0.022 0.062-0.044 0.094-0.064l0.066-0.045 0.099-0.063 0.066-0.040 0.113-0.063 0.058-0.033c0.053-0.028 0.107-0.054 0.161-0.079 0.004-0.002 0.009-0.006 0.014-0.007 0.058-0.029 0.119-0.055 0.179-0.079l0.184-0.072 0.073-0.025c0.012-0.005 0.050-0.018 0.089-0.030l0.027-0.007c0.097-0.032 0.228-0.067 0.361-0.095l0.029-0.005 0.083-0.019c0.084-0.017 0.194-0.034 0.306-0.047l0.018-0.002 0.079-0.009 0.139-0.011c0.022 0 0.044-0.003 0.067-0.003 0.062-0.004 0.135-0.006 0.209-0.006s0.146 0.002 0.219 0.006l-0.010-0c0.023 0 0.045 0.002 0.068 0.004 0.046 0.002 0.093 0.006 0.138 0.011 0.026 0.001 0.053 0.006 0.079 0.008 0.089 0.010 0.16 0.020 0.23 0.032l-0.023-0.003 0.117 0.020 0.084 0.018c0.133 0.028 0.237 0.054 0.34 0.085l-0.030-0.008 0.079 0.024c0.039 0.011 0.077 0.024 0.115 0.038l0.073 0.025 0.126 0.049 0.058 0.022c0.148 0.062 0.264 0.118 0.377 0.179l-0.023-0.011 0.058 0.032 0.113 0.063 0.066 0.040 0.099 0.063 0.067 0.044 0.093 0.066c0.060 0.042 0.111 0.080 0.159 0.12l-0.005-0.004 0.065 0.052c0.030 0.023 0.058 0.049 0.087 0.073l0.060 0.052 0.141 0.132 0.093 0.095 0.041 0.044c0.082 0.089 0.164 0.184 0.241 0.283l0.007 0.010 0.040 0.053c0.025 0.033 0.051 0.067 0.074 0.102l0.043 0.064c0.049 0.070 0.103 0.156 0.153 0.243l0.010 0.018 0.040 0.072 0.052 0.099 0.036 0.073 0.049 0.105 0.032 0.072c0.017 0.038 0.031 0.075 0.045 0.113l0.026 0.068c0.017 0.043 0.031 0.086 0.045 0.13l0.019 0.053c0.020 0.062 0.038 0.126 0.055 0.188l0.007 0.031c0.014 0.053 0.026 0.107 0.039 0.161l0.012 0.066 0.021 0.103h12.023v-20.171c0-0.375 0.311-0.68 0.695-0.68h10.060c0.017 0 0.070 0 0.103-0.061 0.009-0.015 0.015-0.034 0.015-0.053 0-0.024-0.008-0.046-0.022-0.063l0 0-2.176-3.186c-0.208-0.3-0.551-0.493-0.939-0.493-0.002 0-0.003 0-0.005 0h-18.168c-0 0-0 0-0.001 0-0.104 0-0.199 0.042-0.267 0.109l0-0-1.151 1.122c-0.321 0.313-0.76 0.506-1.244 0.506-0.003 0-0.006 0-0.008-0h-11.98c-0.004-0-0.008-0-0.012-0-0.61 0-1.106 0.49-1.114 1.098v17.418z"></path>
<path d="M19.422 7.501h4.402c0.888 0 1.612 0.706 1.612 1.574v14.527c0 0.375-0.311 0.679-0.695 0.679h-6.234c-0.002 0-0.005 0-0.008 0-0.377 0-0.682-0.303-0.687-0.678v-14.527c0-0.868 0.722-1.574 1.611-1.574zM19.201 22.922h4.843v-7.981h-4.844v7.981zM19.201 13.583h4.843v-4.51c-0.001-0.12-0.099-0.216-0.218-0.216-0.001 0-0.002 0-0.002 0h-4.403c-0.121 0-0.221 0.097-0.221 0.216l0.001 4.508z"></path>
</symbol>
<symbol id="gas" viewBox="0 0 32 32">
<path d="M25.072 13.992c-0.368-0.454-0.816-0.848-1.232-1.24-1.072-0.906-2.288-1.557-3.312-2.509-2.384-2.206-2.912-5.848-1.392-8.643-1.52 0.347-2.848 1.133-3.982 1.995-4.144 3.142-5.776 8.688-3.824 13.448 0.064 0.152 0.128 0.304 0.128 0.499 0 0.333-0.24 0.635-0.56 0.755-0.368 0.152-0.752 0.061-1.056-0.181-0.090-0.070-0.165-0.155-0.222-0.252l-0.002-0.004c-1.808-2.162-2.096-5.259-0.88-7.738-2.67 2.054-4.126 5.531-3.918 8.81 0.096 0.755 0.192 1.512 0.464 2.267 0.224 0.906 0.656 1.813 1.136 2.614 1.728 2.614 4.72 4.488 7.936 4.864 3.422 0.41 7.085-0.179 9.709-2.416 2.928-2.509 3.952-6.528 2.448-9.974l-0.208-0.392c-0.336-0.696-1.232-1.904-1.232-1.904zM20.016 23.512c-0.448 0.362-1.184 0.755-1.76 0.906-1.792 0.605-3.582-0.24-4.638-1.238 1.904-0.422 3.040-1.752 3.376-3.098 0.272-1.21-0.24-2.206-0.448-3.37-0.192-1.12-0.16-2.070 0.272-3.114 0.304 0.574 0.624 1.149 1.008 1.602 1.232 1.512 3.168 2.176 3.584 4.232 0.064 0.211 0.096 0.422 0.096 0.65 0.048 1.238-0.528 2.598-1.488 3.43z"></path>
</symbol>
<symbol id="hand-painted-plate" viewBox="0 0 32 32">
<path d="M28 27.84h-24c-1.44 0-2.56-1.12-2.56-2.56v-17.28c0-1.44 1.12-2.56 2.56-2.56h24c1.44 0 2.56 1.12 2.56 2.56v17.28c0 0.64-0.32 1.28-0.8 1.76-0.48 0.64-1.12 0.8-1.76 0.8zM13.12 25.44h14.72c0 0 0.16 0 0.16-0.16v-17.28c0 0 0-0.16-0.16-0.16h-14.72v17.6zM4 7.84c0 0-0.16 0.16 0 0l-0.16 17.44c0 0 0 0.16 0.16 0.16h6.72v-17.6h-6.72z"></path>
<path d="M16.64 23.2c-0.16 0-0.48 0-0.64-0.16-0.48-0.32-0.64-1.12-0.32-1.6l8-11.36c0.32-0.48 1.12-0.64 1.6-0.32s0.64 1.12 0.32 1.6l-8 11.36c-0.16 0.32-0.48 0.48-0.96 0.48zM7.36 15.2c-0.64 0-1.28-0.48-1.28-1.28v-2.56c0-0.64 0.48-1.28 1.28-1.28s1.28 0.48 1.28 1.28v2.72c-0.16 0.64-0.64 1.12-1.28 1.12z"></path>
<path d="M8.64 17.92c0-0.8-0.64-1.28-1.28-1.28-0.8 0-1.28 0.64-1.28 1.28s0.64 1.28 1.28 1.28c0.64 0.16 1.28-0.48 1.28-1.28zM8.64 22.080c0-0.8-0.64-1.28-1.28-1.28-0.8 0-1.28 0.64-1.28 1.28s0.64 1.28 1.28 1.28c0.64 0 1.28-0.64 1.28-1.28v0z"></path>
</symbol>
<symbol id="heart" viewBox="0 0 32 32">
<path stroke-linejoin="round" stroke-linecap="round" stroke-miterlimit="4" stroke-width="3.0667" d="M27.787 6.147c-1.327-1.328-3.161-2.149-5.187-2.149s-3.859 0.821-5.187 2.149l-1.413 1.413-1.413-1.413c-1.327-1.327-3.161-2.148-5.187-2.148-4.051 0-7.335 3.284-7.335 7.335 0 2.026 0.821 3.859 2.148 5.187l11.787 11.787 11.787-11.787c1.328-1.327 2.149-3.161 2.149-5.187s-0.821-3.859-2.149-5.187l-0-0z"></path>
</symbol>
<symbol id="kitchen" viewBox="0 0 32 32">
<path d="M25.28 29.28h-1.28c-0.64 0-1.28-0.48-1.28-1.28v-4c0-0.64 0.64-1.28 1.28-1.12v-1.6h-5.44c-0.64 0-1.12-0.48-1.28-1.12 0-5.6 0.48-10.56 7.040-16.8 0.32-0.32 0.8-0.48 1.28-0.16 0.48 0.16 0.8 0.64 0.8 1.12v24c0.16 0.32-0.48 0.96-1.12 0.96zM19.84 18.88h4.32v-11.84c-3.68 4.16-4.16 7.84-4.32 11.84zM10.72 29.28c-0.64 0-1.28-0.48-1.28-1.28v-13.6c-2.24-0.48-4-2.56-4-5.12v-4c0-0.64 0.48-1.28 1.28-1.28s1.28 0.48 1.28 1.28v4c0 1.12 0.64 2.080 1.6 2.56v-6.56c0-0.64 0.48-1.28 1.28-1.28s1.28 0.48 1.28 1.28v6.56c0.96-0.48 1.6-1.44 1.6-2.56v-4c0-0.64 0.48-1.28 1.28-1.28s1.28 0.48 1.28 1.28v4c0 2.4-1.76 4.48-4 5.12v13.6c-0.48 0.64-0.96 1.28-1.6 1.28z"></path>
</symbol>
<symbol id="map-pin" viewBox="0 0 29 32">
<path d="M14.4 31.872c-0.24 0-0.464-0.064-0.672-0.208-0.512-0.336-12.528-8.464-12.528-18.336 0-7.28 5.92-13.2 13.2-13.2s13.2 5.92 13.2 13.2c0 9.856-12.016 18-12.528 18.336-0.208 0.128-0.432 0.208-0.672 0.208zM14.4 2.528c-5.952 0-10.8 4.848-10.8 10.8 0 7.36 8.352 14.048 10.8 15.856 2.448-1.808 10.8-8.512 10.8-15.856 0-5.952-4.848-10.8-10.8-10.8z"></path>
<path d="M14.4 18.528c-2.864 0-5.2-2.336-5.2-5.2s2.336-5.2 5.2-5.2 5.2 2.336 5.2 5.2-2.336 5.2-5.2 5.2zM14.4 10.528c-1.536 0-2.8 1.264-2.8 2.8s1.264 2.8 2.8 2.8 2.8-1.264 2.8-2.8-1.264-2.8-2.8-2.8z"></path>
</symbol>
<symbol id="microwave" viewBox="0 0 32 32">
<path d="M29.76 27.36c0 0 0 0 0 0h-27.52c-0.64 0-1.12-0.16-1.6-0.64s-0.64-0.96-0.64-1.6v-18.24c0-0.64 0.16-1.12 0.64-1.6s0.96-0.64 1.6-0.64c0 0 0 0 0 0h27.36c1.28 0 2.24 0.96 2.24 2.24v18.24c0 0.64-0.16 1.12-0.64 1.6-0.32 0.48-0.96 0.64-1.44 0.64zM2.24 6.88v18.24h27.52v-18.24h-27.52z"></path>
<path d="M19.36 22.88h-12.48c-1.28 0-2.24-0.96-2.24-2.24v-9.28c0-1.28 0.96-2.24 2.24-2.24 0 0 0 0 0 0h12.64c1.28 0 2.24 0.96 2.24 2.24v9.12c0 1.28-1.12 2.4-2.4 2.4zM6.88 11.36v9.12h12.64v-9.12h-12.64zM26.24 17.12h-1.12c-0.64 0-1.12-0.48-1.12-1.12s0.48-1.12 1.12-1.12h1.12c0.64 0 1.12 0.48 1.12 1.12s-0.48 1.12-1.12 1.12zM26.24 12.48h-1.12c-0.64 0-1.12-0.48-1.12-1.12s0.48-1.12 1.12-1.12h1.12c0.64 0 1.12 0.48 1.12 1.12s-0.48 1.12-1.12 1.12z"></path>
</symbol>
<symbol id="petrol" viewBox="0 0 32 32">
<path d="M26.36 9.64l0.013-0.013-4.96-4.96-1.413 1.413 2.813 2.813c-1.266 0.488-2.148 1.695-2.148 3.109 0 0.92 0.374 1.753 0.979 2.355l0 0c0.603 0.602 1.436 0.975 2.355 0.975 0.483 0 0.941-0.103 1.356-0.287l-0.021 0.008v9.614c0 0.736-0.597 1.333-1.333 1.333s-1.333-0.597-1.333-1.333v0-6c0-1.473-1.194-2.667-2.667-2.667v0h-1.333v-9.333c0-1.473-1.194-2.667-2.667-2.667v0h-8c-1.473 0-2.667 1.194-2.667 2.667v0 21.333h13.334v-10h2v6.667c0 1.841 1.492 3.333 3.333 3.333s3.333-1.492 3.333-3.333v0-12.667c0-0.92-0.373-1.76-0.973-2.36zM16 18v7.333h-8v-9.333h8v2zM16 13.333h-8v-6.666h8v6.666zM24 13.333c-0.736 0-1.333-0.597-1.333-1.333s0.597-1.333 1.333-1.333v0c0.736 0 1.333 0.597 1.333 1.333s-0.597 1.333-1.333 1.333v0z"></path>
</symbol>
<symbol id="radio-linear" viewBox="0 0 32 32">
<path d="M18.72 30.4h-5.44c-5.28 0-8 0-9.76-1.92-1.92-1.76-1.92-4.48-1.92-9.76s0-8 1.92-9.76c1.92-1.92 4.48-1.92 9.76-1.92h5.28c5.28 0 8 0 9.92 1.92 1.92 1.76 1.92 4.32 1.92 9.76 0 5.28 0 8-1.92 9.76-1.76 1.92-4.48 1.92-9.76 1.92zM13.28 9.12c-4.8 0-7.040 0-8.32 1.28s-1.28 3.68-1.28 8.32c0 4.8 0 7.040 1.28 8.32s3.68 1.28 8.32 1.28h5.28c4.8 0 7.040 0 8.32-1.28s1.28-3.68 1.28-8.32c0-4.8 0-7.040-1.28-8.32s-3.68-1.28-8.32-1.28h-5.28z"></path>
<path d="M9.92 25.76c-1.6 0-3.040-1.44-3.040-3.040s1.44-3.040 3.040-3.040 3.040 1.44 3.040 3.040-1.28 3.040-3.040 3.040zM9.92 21.76c-0.48 0-0.96 0.48-0.96 0.96s0.48 0.96 0.96 0.96 0.96-0.48 0.96-0.96-0.32-0.96-0.96-0.96zM22.72 18.4h-13.44c-2.080 0-3.68-1.6-3.68-3.68v0c0-2.080 1.6-3.68 3.68-3.68h13.28c2.080 0 3.68 1.6 3.68 3.68s-1.6 3.68-3.52 3.68zM7.68 14.72c0 0.96 0.8 1.6 1.6 1.6h13.28c0.96 0 1.6-0.8 1.6-1.6s-0.8-1.6-1.6-1.6h-13.28c-0.8 0-1.6 0.64-1.6 1.6z"></path>
<path d="M24 23.68h-6.72c-0.64 0-0.96-0.48-0.96-1.12s0.48-1.12 0.96-1.12h6.72c0.64 0 1.12 0.48 1.12 1.12s-0.48 1.12-1.12 1.12zM20 18.4c-0.64 0-1.12-0.48-1.12-1.12v-1.92c0-0.64 0.48-0.96 1.12-0.96s1.12 0.48 1.12 0.96v1.92c0 0.64-0.48 1.12-1.12 1.12zM8.64 9.12c-0.32 0-0.8-0.16-0.96-0.64s0-1.12 0.48-1.44l11.36-5.28c0.48-0.32 1.12 0 1.44 0.48s0 1.12-0.48 1.44l-11.36 5.28c-0.16 0-0.32 0.16-0.48 0.16z"></path>
</symbol>
<symbol id="shower" viewBox="0 0 32 32">
<path d="M14.72 28c-0.64 0-1.28-0.64-1.28-1.28s0.64-1.28 1.28-1.28 1.28 0.64 1.28 1.28v0c0 0.64-0.64 1.28-1.28 1.28zM18.72 24c-0.64 0-1.28-0.64-1.28-1.28s0.64-1.28 1.28-1.28 1.28 0.64 1.28 1.28v0c0 0.64-0.64 1.28-1.28 1.28zM13.28 22.56c-0.64 0-1.28-0.64-1.28-1.28s0.64-1.28 1.28-1.28 1.28 0.64 1.28 1.28v0c0 0.8-0.48 1.28-1.28 1.28zM6.72 21.28c-0.32 0-0.64-0.16-0.96-0.32-0.48-0.48-0.48-1.28 0-1.76l1.12-1.12c-1.92-2.72-1.92-6.4 0-9.12l-2.4-2.72c-0.48-0.48-0.48-1.28 0-1.76s1.28-0.48 1.76 0l2.56 2.56c1.28-0.96 2.88-1.44 4.48-1.44s3.36 0.48 4.64 1.44l1.12-1.12c0.48-0.48 1.28-0.48 1.76 0s0.48 1.28 0 1.76l-1.92 1.92c0 0 0 0 0 0l-11.36 11.36c-0.16 0.16-0.48 0.32-0.8 0.32zM13.44 8.16c0 0-0.16 0 0 0-1.44 0-2.88 0.64-3.84 1.6-1.76 1.76-1.92 4.32-0.8 6.4l7.2-7.36c-0.8-0.48-1.6-0.64-2.56-0.64zM22.72 20c-0.64 0-1.28-0.64-1.28-1.28s0.64-1.28 1.28-1.28 1.28 0.64 1.28 1.28v0c0 0.64-0.64 1.28-1.28 1.28zM17.28 18.56c-0.64 0-1.28-0.64-1.28-1.28s0.64-1.28 1.28-1.28c0.64 0 1.28 0.64 1.28 1.28v0c0 0.8-0.48 1.28-1.28 1.28zM26.72 16c-0.64 0-1.28-0.64-1.28-1.28s0.64-1.28 1.28-1.28 1.28 0.64 1.28 1.28v0c0 0.64-0.64 1.28-1.28 1.28zM21.28 14.56c-0.64 0-1.28-0.64-1.28-1.28s0.64-1.28 1.28-1.28 1.28 0.64 1.28 1.28v0c0 0.8-0.48 1.28-1.28 1.28z"></path>
</symbol>
<symbol id="star" viewBox="0 0 32 32">
<path fill="#ffc531" style="fill: var(--color1, #ffc531)" d="M12.4 9.4l3.6-6.8 3.6 6.8c0.4 0.6 0.8 1 1.6 1.2l7.6 1.4-5.4 5.6c-0.4 0.4-0.6 1.2-0.6 1.8l1.2 7.6-7-3.4c-0.6-0.4-1.4-0.4-2 0l-7 3.4 1.2-7.6c0-0.6-0.2-1.4-0.6-1.8l-5.4-5.8 7.6-1.4c0.8 0 1.2-0.4 1.6-1z"></path>
<path fill="#ffc531" style="fill: var(--color1, #ffc531)" d="M6.6 29l1.4-10c0-0.4 0-0.6-0.2-0.8l-7-7.2 9.8-1.8c0.4 0 0.6-0.2 0.8-0.6l4.6-8.6 4.6 8.8c0.2 0.2 0.4 0.4 0.8 0.6l9.8 1.8-7 7.2c-0.2 0-0.2 0.4-0.2 0.6l1.4 9.8-9-4.4c-0.2-0.2-0.6-0.2-0.8 0l-9 4.6zM16 22c0.6 0 1 0.2 1.4 0.4l4.8 2.4-0.8-5.4c-0.2-1 0.2-2.2 1-2.8l3.8-4-5.4-1c-0.8 0-1.8-0.8-2.2-1.6l-2.6-4.8-2.6 4.8c-0.4 0.8-1.4 1.6-2.4 1.8l-5.4 0.8 3.8 4c0.8 0.8 1 1.8 1 2.8l-0.8 5.4 4.8-2.4c0.6-0.2 1-0.4 1.6-0.4z"></path>
</symbol>
<symbol id="toilet-paper" viewBox="0 0 32 32">
<path d="M24 4c1.92 0 3.2 1.6 4 3.36 0.8 1.6 1.28 3.84 1.28 6.080v13.12c0 0.8-0.64 1.28-1.28 1.28 0 0 0 0 0 0h-0.16l-3.84-0.48-3.84 0.64c-0.16 0-0.32 0-0.48 0h-0.16l-3.52-1.28-3.52 1.12c-0.64 0.16-1.44-0.16-1.76-0.8 0-0.16 0-0.16 0-0.32v-4c-0.8 0.8-1.6 1.28-2.72 1.28-1.92 0-3.2-1.6-4-3.36s-1.28-4.16-1.28-6.56 0.48-4.96 1.28-6.72c0.8-1.6 1.92-3.2 3.84-3.36h16.16zM24 6.72h-12.32c0.16 0.16 0.16 0.48 0.32 0.64 0.8 1.76 1.28 4.16 1.28 6.72v10.88l2.24-0.96c0.32-0.16 0.64-0.16 0.8 0l3.68 1.28 3.68-0.64c0.16 0 0.32 0 0.48 0l2.4 0.48v-11.040c0-2.24-0.48-4.16-1.12-5.6-0.48-1.6-1.12-1.76-1.44-1.76zM8 6.72c-0.32 0-0.96 0.32-1.6 1.76-0.64 1.28-1.12 3.2-1.12 5.6s0.48 4.16 1.12 5.6c0.64 1.44 1.28 1.76 1.6 1.76s0.96-0.32 1.6-1.76c0.64-1.28 1.12-3.36 1.12-5.6s-0.48-4.32-1.12-5.6c-0.64-1.6-1.28-1.76-1.6-1.76v0zM8 11.36c0.8 0 1.28 1.12 1.28 2.72 0 1.44-0.64 2.72-1.28 2.72s-1.28-1.28-1.28-2.72c0-1.6 0.48-2.72 1.28-2.72z"></path>
</symbol>
<symbol id="users" viewBox="0 0 32 32">
<path d="M9.067 24.133h-4.4c-0.267 0-0.4-0.133-0.534-0.266-0.133-0.134-0.266-0.4-0.133-0.667 0.8-2.267 2.8-3.6 5.067-3.6 2.8 0 5.066-2.4 5.066-5.2s-2.266-5.467-5.066-5.467-5.067 2.4-5.067 5.334c0 1.333 0.533 2.666 1.333 3.6-1.733 0.933-3.066 2.4-3.866 4.4-0.081 0.288-0.128 0.62-0.128 0.962 0 0.787 0.247 1.517 0.668 2.116l-0.008-0.012c0.667 0.934 1.6 1.467 2.667 1.467h4.4c0.8 0 1.333-0.533 1.333-1.333s-0.533-1.334-1.333-1.334zM6.667 14.267c0-1.467 1.066-2.534 2.4-2.534 1.333 0 2.4 1.2 2.4 2.534 0 1.466-1.067 2.533-2.4 2.533-1.334 0-2.4-1.2-2.4-2.533z"></path>
<path d="M30.533 21.467c-0.914-2.407-2.658-4.325-4.875-5.441l-0.057-0.026c1.2-1.067 1.867-2.667 1.867-4.533 0-3.467-2.667-6.267-5.867-6.267s-5.867 2.8-5.867 6.267c0 1.733 0.667 3.333 1.867 4.533-2.274 1.142-4.019 3.060-4.91 5.399l-0.023 0.069c-0.667 1.2-0.4 2.533 0.266 3.6 0.667 1.066 1.867 1.6 3.067 1.6h11.067c1.2 0 2.4-0.667 3.066-1.6 0.8-1.067 0.934-2.4 0.4-3.6zM18.267 11.6c0-2 1.466-3.6 3.2-3.6 1.733 0 3.2 1.6 3.2 3.6s-1.467 3.6-3.2 3.6c-1.734 0-3.2-1.733-3.2-3.6zM27.867 23.6c-0.134 0.133-0.4 0.533-0.8 0.533h-11.067c-0.533 0-0.8-0.4-0.8-0.533-0.153-0.192-0.246-0.438-0.246-0.706 0-0.18 0.042-0.35 0.116-0.501l-0.003 0.007c1.066-2.8 3.733-4.667 6.533-4.667s5.467 1.867 6.533 4.667c0.134 0.533-0.133 1.067-0.266 1.2z"></path>
</symbol>
<symbol id="van" viewBox="0 0 46 32">
<path d="M2.608 1.8h12.409c0 0 0.001 0 0.001 0 0.108 0 0.206-0.043 0.277-0.113l-0 0 1.192-1.161c0.332-0.325 0.788-0.526 1.29-0.526 0.003 0 0.005 0 0.007 0h18.817c0.004-0 0.008-0 0.012-0 0.894 0 1.683 0.446 2.158 1.127l0.006 0.009 2.255 3.301c0.32 0.469 0.35 1.067 0.078 1.563-0.273 0.483-0.783 0.805-1.368 0.805-0.003 0-0.006 0-0.009-0h-9.698v0.957h4.967c0.006-0 0.014-0 0.021-0 1.328 0 2.472 0.789 2.988 1.925l0.008 0.021 2.909 6.649 2.549 0.994c1.36 0.531 2.239 1.798 2.239 3.227v6.158c0 0.919-0.766 1.666-1.707 1.666h-2.965c-0.344 2.038-2.162 3.599-4.35 3.599s-4.007-1.561-4.35-3.6h-16.203c-0.345 2.040-2.165 3.6-4.351 3.6-2.185 0-4.005-1.561-4.35-3.6h-5.92c-0.839 0-1.519-0.663-1.519-1.479v-22.578c0-1.403 1.169-2.544 2.608-2.544zM36.693 30.594c1.637 0 2.969-1.299 2.969-2.897 0-1.597-1.333-2.896-2.969-2.896-1.638 0-2.969 1.299-2.969 2.896 0 1.598 1.331 2.897 2.969 2.897zM30.034 26.994h2.307l0.019-0.104 0.014-0.071c0.011-0.055 0.025-0.11 0.039-0.165l0.009-0.034c0.017-0.065 0.035-0.129 0.057-0.194 0.005-0.018 0.011-0.037 0.018-0.056 0.034-0.102 0.059-0.171 0.086-0.238l-0.011 0.032 0.047-0.114 0.034-0.075 0.049-0.109 0.038-0.075 0.055-0.103 0.040-0.074 0.059-0.101 0.043-0.071 0.066-0.101 0.045-0.065c0.025-0.035 0.050-0.071 0.078-0.105l0.040-0.055c0.089-0.113 0.173-0.212 0.261-0.308l-0.003 0.004 0.042-0.043 0.096-0.099 0.057-0.053c0.075-0.072 0.153-0.142 0.234-0.209l0.007-0.005 0.066-0.051c0.042-0.034 0.094-0.074 0.148-0.113l0.013-0.009 0.097-0.067 0.069-0.046c0.034-0.023 0.069-0.043 0.104-0.065l0.069-0.041c0.038-0.023 0.077-0.043 0.115-0.065l0.059-0.034c0.025-0.015 0.081-0.043 0.137-0.069l0.032-0.014 0.013-0.006c0.062-0.030 0.123-0.057 0.186-0.082 0.019-0.009 0.041-0.016 0.061-0.024l0.13-0.050 0.074-0.026c0.139-0.050 0.314-0.099 0.493-0.138l0.030-0.006 0.087-0.018c0.087-0.018 0.201-0.036 0.317-0.049l0.019-0.002 0.082-0.009 0.143-0.011c0.023 0 0.047-0.003 0.071-0.003 0.065-0.004 0.14-0.006 0.216-0.006s0.151 0.002 0.226 0.006l-0.010-0c0.023 0 0.046 0.002 0.071 0.005 0.047 0.002 0.095 0.006 0.143 0.011 0.027 0.001 0.055 0.006 0.082 0.008 0.164 0.018 0.308 0.042 0.449 0.074l-0.026-0.005c0.208 0.044 0.383 0.093 0.554 0.153l-0.030-0.009 0.074 0.026 0.13 0.050 0.061 0.023c0.063 0.026 0.126 0.054 0.186 0.083l0.013 0.006c0.057 0.027 0.113 0.055 0.168 0.085l0.059 0.033c0.040 0.021 0.079 0.042 0.117 0.065l0.069 0.041 0.103 0.065 0.070 0.046 0.097 0.069c0.064 0.045 0.116 0.085 0.167 0.126l-0.006-0.005 0.066 0.051c0.089 0.075 0.167 0.145 0.244 0.218l-0.003-0.003 0.057 0.053 0.096 0.099 0.042 0.043c0.046 0.048 0.089 0.098 0.131 0.149l0.017 0.021c0.037 0.045 0.073 0.088 0.109 0.135l0.040 0.055 0.078 0.105 0.045 0.065 0.066 0.101 0.043 0.071 0.058 0.101 0.041 0.074 0.055 0.103 0.038 0.075c0.017 0.037 0.034 0.072 0.049 0.109l0.034 0.074c0.020 0.043 0.045 0.105 0.068 0.168l0.006 0.020 0.047 0.134 0.019 0.057c0.019 0.064 0.039 0.128 0.057 0.194l0.008 0.034c0.014 0.054 0.026 0.109 0.038 0.163l0.015 0.071 0.019 0.104h2.963c0.001 0 0.002 0 0.003 0 0.144 0 0.261-0.116 0.263-0.259v-2.946h-1.125v-1.406h1.125v-1.806c0-0.851-0.523-1.606-1.334-1.922l-2.697-1.051h-10.208v9.391zM30.034 16.197h9.257l-2.598-5.939c-0.294-0.648-0.936-1.090-1.68-1.090-0.004 0-0.009 0-0.013 0h-4.966v7.030zM11.789 30.594c1.638 0 2.969-1.299 2.969-2.897 0-1.597-1.331-2.896-2.969-2.896-0.051 0-0.102 0.001-0.152 0.005-1.365 0.067-2.488 1.038-2.757 2.309-0.027 0.126-0.047 0.274-0.056 0.426l-0 0.008c-0.002 0.040-0.003 0.086-0.003 0.133 0 0.005 0 0.011 0 0.016v-0.001c0 1.598 1.331 2.897 2.968 2.897zM1.441 22.383h1.125v1.406h-1.126v3.131c0 0.041 0.034 0.074 0.077 0.074h5.92l0.021-0.103c0.005-0.024 0.008-0.049 0.014-0.073 0.011-0.054 0.023-0.107 0.038-0.16l0.009-0.038c0.017-0.065 0.037-0.129 0.057-0.194l0.019-0.057 0.046-0.133 0.029-0.072c0.041-0.106 0.068-0.169 0.096-0.231l-0.016 0.040 0.049-0.106c0.011-0.026 0.025-0.051 0.039-0.077l0.053-0.103 0.042-0.074c0.081-0.139 0.151-0.249 0.225-0.356l-0.013 0.019 0.077-0.104 0.042-0.057c0.034-0.045 0.069-0.088 0.106-0.131l0.018-0.023c0.043-0.050 0.087-0.101 0.131-0.149l0.043-0.046 0.096-0.097 0.057-0.054 0.088-0.083 0.063-0.054 0.090-0.075 0.066-0.054c0.039-0.032 0.092-0.071 0.144-0.11l0.016-0.011c0.032-0.023 0.064-0.046 0.097-0.066l0.069-0.047 0.103-0.065 0.069-0.041 0.117-0.065 0.061-0.034c0.055-0.029 0.111-0.056 0.167-0.082 0.005-0.002 0.009-0.006 0.015-0.007 0.061-0.030 0.123-0.057 0.185-0.082l0.191-0.074 0.075-0.026c0.012-0.005 0.052-0.019 0.092-0.031l0.028-0.008c0.101-0.033 0.236-0.069 0.374-0.099l0.030-0.005 0.086-0.019c0.087-0.018 0.201-0.036 0.317-0.049l0.019-0.002 0.082-0.009 0.144-0.011c0.023 0 0.046-0.003 0.070-0.003 0.065-0.004 0.14-0.006 0.216-0.006s0.151 0.002 0.226 0.006l-0.010-0c0.024 0 0.047 0.002 0.071 0.005 0.048 0.002 0.096 0.006 0.143 0.011 0.027 0.001 0.055 0.006 0.082 0.008 0.093 0.010 0.166 0.021 0.239 0.033l-0.024-0.003 0.121 0.021 0.087 0.018c0.138 0.029 0.246 0.056 0.352 0.088l-0.031-0.008 0.082 0.025c0.040 0.011 0.080 0.025 0.119 0.039l0.075 0.026 0.13 0.050 0.061 0.023c0.153 0.064 0.274 0.122 0.391 0.186l-0.024-0.012 0.061 0.033 0.117 0.065 0.069 0.041 0.103 0.065 0.070 0.046 0.096 0.069c0.062 0.043 0.114 0.083 0.165 0.124l-0.005-0.004 0.067 0.054c0.031 0.024 0.061 0.050 0.090 0.075l0.062 0.054 0.146 0.137 0.096 0.098 0.042 0.046c0.085 0.092 0.169 0.191 0.249 0.293l0.008 0.010 0.041 0.055c0.026 0.034 0.053 0.070 0.077 0.105l0.045 0.066c0.051 0.073 0.107 0.161 0.159 0.252l0.010 0.019 0.041 0.074 0.054 0.103 0.038 0.075 0.050 0.109 0.033 0.074c0.017 0.039 0.032 0.078 0.047 0.117l0.027 0.071c0.017 0.045 0.032 0.089 0.047 0.135l0.019 0.055c0.021 0.064 0.039 0.13 0.057 0.194l0.007 0.032c0.015 0.055 0.027 0.111 0.040 0.167l0.013 0.069 0.022 0.106h12.453v-20.891c0-0.389 0.322-0.704 0.72-0.704h10.419c0.017 0 0.072 0 0.106-0.063 0.010-0.016 0.016-0.035 0.016-0.055 0-0.025-0.008-0.047-0.023-0.065l0 0-2.254-3.299c-0.216-0.31-0.571-0.511-0.972-0.511-0.002 0-0.003 0-0.005 0h-18.817c-0 0-0.001 0-0.001 0-0.108 0-0.206 0.043-0.277 0.113l0-0-1.192 1.162c-0.332 0.324-0.787 0.525-1.289 0.525-0.003 0-0.006 0-0.009-0h-12.408c-0.004-0-0.008-0-0.013-0-0.632 0-1.145 0.508-1.154 1.137v18.040z"></path>
<path d="M5.536 7.198h8.814c1.019 0 1.848 0.809 1.848 1.802v4.101c0 0.994-0.83 1.802-1.848 1.802h-8.815c-1.018 0-1.847-0.808-1.847-1.802v-4.101c0-0.994 0.829-1.802 1.848-1.802zM5.129 13.101c0 0.217 0.183 0.397 0.407 0.397h8.814c0.001 0 0.003 0 0.005 0 0.22 0 0.399-0.177 0.402-0.396v-4.101c0-0.218-0.183-0.397-0.407-0.397h-8.815c-0.001 0-0.002 0-0.003 0-0.22 0-0.399 0.177-0.402 0.396v4.101z"></path>
</symbol>
<symbol id="water" viewBox="0 0 32 32">
<path d="M16 30.24c-6.24 0-10.24-4-10.24-10.24s6.080-13.92 8.8-16.96c0.64-0.8 1.92-0.96 2.72-0.16l0.16 0.16c2.56 3.040 8.8 10.88 8.8 16.96 0 6.24-4 10.24-10.24 10.24zM16 4.96c-3.84 4.64-7.84 10.88-7.84 15.040 0 4.96 2.88 7.84 7.84 7.84s7.84-2.88 7.84-7.84c0-4.32-4-10.56-7.84-15.040z"></path>
<path d="M16.96 26.24c-0.64 0-1.28-0.48-1.28-1.28s0.48-1.28 1.28-1.28c1.76 0 3.36-1.44 3.36-3.36 0-0.64 0.48-1.28 1.28-1.28s1.28 0.48 1.28 1.28c-0.16 3.36-2.72 5.92-5.92 5.92z"></path>
</symbol>
</defs>
</svg>
